<svg width="1374" height="234" viewBox="0 0 1374 234" fill="none" xmlns="http://www.w3.org/2000/svg">
<path d="M1349 2.5C1361.43 2.5 1371.5 12.5736 1371.5 25V29C1371.5 140.838 1280.84 231.5 1169 231.5H205C93.1623 231.5 2.5 140.838 2.5 29V25C2.5 12.5736 12.5736 2.5 25 2.5H1349Z" stroke="#868686" stroke-width="5"/>
<path d="M642.432 110.182C642.261 108.742 641.57 107.625 640.358 106.83C639.146 106.034 637.659 105.636 635.898 105.636C634.61 105.636 633.483 105.845 632.517 106.261C631.561 106.678 630.813 107.251 630.273 107.98C629.742 108.709 629.477 109.538 629.477 110.466C629.477 111.242 629.662 111.91 630.031 112.469C630.41 113.018 630.893 113.477 631.48 113.847C632.067 114.206 632.683 114.505 633.327 114.741C633.971 114.969 634.562 115.153 635.102 115.295L638.057 116.091C638.814 116.29 639.657 116.564 640.585 116.915C641.523 117.265 642.418 117.743 643.27 118.349C644.132 118.946 644.842 119.713 645.401 120.651C645.959 121.588 646.239 122.739 646.239 124.102C646.239 125.674 645.827 127.095 645.003 128.364C644.188 129.633 642.995 130.641 641.423 131.389C639.861 132.137 637.962 132.511 635.727 132.511C633.644 132.511 631.84 132.175 630.315 131.503C628.8 130.83 627.607 129.893 626.736 128.69C625.874 127.488 625.386 126.091 625.273 124.5H628.909C629.004 125.598 629.373 126.508 630.017 127.227C630.67 127.937 631.494 128.468 632.489 128.818C633.492 129.159 634.572 129.33 635.727 129.33C637.072 129.33 638.279 129.112 639.349 128.676C640.42 128.231 641.267 127.616 641.892 126.83C642.517 126.034 642.83 125.106 642.83 124.045C642.83 123.08 642.56 122.294 642.02 121.688C641.48 121.081 640.77 120.589 639.889 120.21C639.009 119.831 638.057 119.5 637.034 119.216L633.455 118.193C631.182 117.54 629.383 116.607 628.057 115.395C626.731 114.183 626.068 112.597 626.068 110.636C626.068 109.008 626.509 107.587 627.389 106.375C628.279 105.153 629.473 104.206 630.969 103.534C632.474 102.852 634.155 102.511 636.011 102.511C637.886 102.511 639.553 102.848 641.011 103.52C642.47 104.183 643.625 105.092 644.477 106.247C645.339 107.402 645.794 108.714 645.841 110.182H642.432ZM650.44 106.034V102.909H672.258V106.034H663.11V132H659.587V106.034H650.44ZM675.489 132H671.796L682.478 102.909H686.114L696.796 132H693.103L684.41 107.511H684.183L675.489 132ZM676.853 120.636H691.739V123.761H676.853V120.636ZM719.847 112C719.534 111.044 719.122 110.187 718.611 109.429C718.109 108.662 717.508 108.009 716.807 107.469C716.116 106.929 715.33 106.517 714.449 106.233C713.568 105.949 712.602 105.807 711.551 105.807C709.828 105.807 708.26 106.252 706.849 107.142C705.438 108.032 704.316 109.344 703.483 111.077C702.65 112.81 702.233 114.936 702.233 117.455C702.233 119.973 702.654 122.099 703.497 123.832C704.34 125.565 705.481 126.877 706.92 127.767C708.36 128.657 709.979 129.102 711.778 129.102C713.445 129.102 714.913 128.747 716.182 128.037C717.46 127.317 718.455 126.304 719.165 124.997C719.884 123.681 720.244 122.133 720.244 120.352L721.324 120.58H712.574V117.455H723.653V120.58C723.653 122.975 723.142 125.059 722.119 126.83C721.106 128.6 719.705 129.973 717.915 130.949C716.134 131.915 714.089 132.398 711.778 132.398C709.203 132.398 706.939 131.792 704.989 130.58C703.047 129.367 701.532 127.644 700.443 125.409C699.364 123.174 698.824 120.523 698.824 117.455C698.824 115.153 699.132 113.084 699.747 111.247C700.372 109.401 701.253 107.829 702.389 106.531C703.526 105.234 704.87 104.24 706.423 103.548C707.976 102.857 709.686 102.511 711.551 102.511C713.085 102.511 714.515 102.743 715.841 103.207C717.176 103.662 718.365 104.311 719.406 105.153C720.457 105.987 721.333 106.986 722.034 108.151C722.735 109.306 723.218 110.589 723.483 112H719.847ZM729.687 132V102.909H747.244V106.034H733.21V115.864H746.335V118.989H733.21V128.875H747.471V132H729.687Z" fill="#868686"/>
</svg>
